<svg width="285" height="52" viewBox="0 0 285 52" fill="none" xmlns="http://www.w3.org/2000/svg">
<path d="M51.104 26.496L49.04 42.48L45.728 42.048L49.568 12.528C50.656 12.272 51.664 12.112 52.592 12.048C53.552 11.984 54.256 11.952 54.704 11.952C55.184 11.952 55.904 11.984 56.864 12.048C57.824 12.112 58.848 12.272 59.936 12.528L63.68 42.048L60.368 42.48L58.304 26.496H51.104ZM54.704 15.024C53.968 15.024 53.248 15.104 52.544 15.264L51.488 23.424H57.872L56.912 15.264C56.176 15.104 55.44 15.024 54.704 15.024ZM67.1075 22.128C67.9395 21.616 69.0435 21.12 70.4195 20.64C71.7955 20.16 73.4435 19.92 75.3635 19.92C76.1955 19.92 77.0755 20.016 78.0035 20.208C78.9635 20.368 79.8755 20.72 80.7395 21.264C81.6035 21.776 82.3075 22.592 82.8515 23.712C83.0755 24.192 83.2355 24.768 83.3315 25.44C83.4595 26.112 83.5555 26.992 83.6195 28.08C83.6835 29.136 83.7155 30.528 83.7155 32.256V42H80.6435V32.16C80.6435 30.048 80.5795 28.448 80.4515 27.36C80.3555 26.24 80.1155 25.376 79.7315 24.768C79.4435 24.32 78.9475 23.888 78.2435 23.472C77.5715 23.024 76.5475 22.8 75.1715 22.8C74.4035 22.8 73.6995 22.864 73.0595 22.992C72.4195 23.12 71.8275 23.296 71.2835 23.52V42H68.2115V24.48L67.1075 22.128ZM92.615 12.432V16.032H89.207V12.432H92.615ZM92.423 20.4V42H89.399V23.424L88.391 20.4H92.423ZM97.1041 23.088C98.8641 22.032 100.816 21.248 102.96 20.736C105.104 20.192 107.344 19.92 109.68 19.92C110.256 19.92 111.072 19.968 112.128 20.064C113.184 20.16 114.288 20.384 115.44 20.736C116.624 21.088 117.648 21.68 118.512 22.512C119.728 23.664 120.448 24.976 120.672 26.448C120.928 27.888 121.056 29.264 121.056 30.576V42H118.032V32.256C118.032 31.456 118.016 30.592 117.984 29.664C117.952 28.704 117.824 27.792 117.6 26.928C117.376 26.032 116.96 25.28 116.352 24.672C115.776 24.064 114.992 23.6 114 23.28C113.008 22.96 112.112 22.8 111.312 22.8V42H108.24V22.8C107.12 22.8 105.968 22.912 104.784 23.136C103.632 23.328 102.544 23.648 101.52 24.096V42H98.4481V25.44L97.1041 23.088ZM129.401 32.064V38.352C130.137 38.864 130.937 39.2 131.801 39.36C132.665 39.52 133.465 39.6 134.201 39.6C135.577 39.6 136.809 39.456 137.897 39.168C139.017 38.848 140.089 38.336 141.113 37.632V40.848C140.153 41.424 139.097 41.84 137.945 42.096C136.825 42.352 135.609 42.48 134.297 42.48C132.249 42.48 130.441 42.192 128.873 41.616C127.337 41.04 125.929 40.192 124.649 39.072L126.329 37.104V29.28C126.329 28.672 126.329 27.952 126.329 27.12C126.361 26.288 126.505 25.424 126.761 24.528C127.017 23.632 127.481 22.8 128.153 22.032C129.017 21.072 129.945 20.48 130.937 20.256C131.961 20.032 132.873 19.92 133.673 19.92C134.505 19.92 135.417 20.032 136.409 20.256C137.433 20.48 138.361 21.072 139.193 22.032C139.865 22.8 140.329 23.632 140.585 24.528C140.873 25.424 141.033 26.288 141.065 27.12C141.097 27.952 141.113 28.672 141.113 29.28V32.064H129.401ZM137.753 29.184C137.753 28.48 137.721 27.68 137.657 26.784C137.593 25.888 137.337 25.104 136.889 24.432C136.697 24.112 136.345 23.76 135.833 23.376C135.321 22.992 134.569 22.8 133.577 22.8C132.617 22.8 131.865 22.992 131.321 23.376C130.809 23.76 130.441 24.112 130.217 24.432C129.801 25.104 129.561 25.888 129.497 26.784C129.433 27.68 129.401 28.48 129.401 29.184H137.753ZM158.108 24.336C157.212 23.888 156.332 23.536 155.468 23.28C154.636 23.024 153.676 22.896 152.588 22.896C151.532 22.896 150.62 23.104 149.852 23.52C149.116 23.936 148.748 24.704 148.748 25.824C148.748 26.688 149.036 27.376 149.612 27.888C150.188 28.368 150.892 28.816 151.724 29.232L154.892 30.768C156.3 31.44 157.404 32.224 158.204 33.12C159.004 33.984 159.404 35.056 159.404 36.336V37.44L161.036 39.408C159.66 40.688 158.204 41.52 156.668 41.904C155.132 42.288 153.66 42.48 152.252 42.48C150.876 42.48 149.628 42.352 148.508 42.096C147.388 41.872 146.444 41.6 145.676 41.28V38.208C146.572 38.592 147.5 38.928 148.46 39.216C149.452 39.472 150.684 39.6 152.156 39.6C153.02 39.6 153.82 39.504 154.556 39.312C155.324 39.12 155.916 38.864 156.332 38.544V37.584C156.332 36.624 156.124 35.84 155.708 35.232C155.324 34.592 154.524 33.968 153.308 33.36L149.612 31.536C148.556 30.992 147.628 30.304 146.828 29.472C146.06 28.64 145.676 27.424 145.676 25.824C145.676 24.032 146.284 22.608 147.5 21.552C148.748 20.464 150.444 19.92 152.588 19.92C153.964 19.92 155.212 20.08 156.332 20.4C157.484 20.72 158.492 21.136 159.356 21.648L158.108 24.336ZM182.56 11.952C184.8 11.952 186.56 12.464 187.84 13.488C189.152 14.48 190.08 15.808 190.624 17.472C191.168 19.136 191.44 20.992 191.44 23.04V36.384L193.168 38.592C192.112 39.488 190.72 40.368 188.992 41.232C187.264 42.064 185.12 42.48 182.56 42.48C180.224 42.48 178.336 42.16 176.896 41.52C175.488 40.88 174.416 40.304 173.68 39.792V23.04C173.68 20.992 173.952 19.136 174.496 17.472C175.04 15.808 175.952 14.48 177.232 13.488C178.544 12.464 180.32 11.952 182.56 11.952ZM182.56 39.408C184.832 39.408 186.672 38.912 188.08 37.92V23.04C188.08 21.728 187.936 20.464 187.648 19.248C187.36 18.032 186.816 17.024 186.016 16.224C185.248 15.424 184.096 15.024 182.56 15.024C181.024 15.024 179.856 15.424 179.056 16.224C178.288 17.024 177.76 18.032 177.472 19.248C177.184 20.464 177.04 21.728 177.04 23.04V37.92C178.448 38.912 180.288 39.408 182.56 39.408ZM196.576 22.128C197.408 21.616 198.512 21.12 199.888 20.64C201.264 20.16 202.912 19.92 204.832 19.92C205.664 19.92 206.544 20.016 207.472 20.208C208.432 20.368 209.344 20.72 210.208 21.264C211.072 21.776 211.776 22.592 212.32 23.712C212.544 24.192 212.704 24.768 212.8 25.44C212.928 26.112 213.024 26.992 213.088 28.08C213.152 29.136 213.184 30.528 213.184 32.256V42H210.112V32.16C210.112 30.048 210.048 28.448 209.92 27.36C209.824 26.24 209.584 25.376 209.2 24.768C208.912 24.32 208.416 23.888 207.712 23.472C207.04 23.024 206.016 22.8 204.64 22.8C203.872 22.8 203.168 22.864 202.528 22.992C201.888 23.12 201.296 23.296 200.752 23.52V42H197.68V24.48L196.576 22.128ZM221.652 10.56V29.568C221.652 31.328 221.732 32.816 221.892 34.032C222.084 35.216 222.516 36.272 223.188 37.2C223.86 38.128 224.932 39.04 226.404 39.936L224.82 42.48C223.06 41.552 221.732 40.512 220.836 39.36C219.94 38.176 219.332 36.8 219.012 35.232C218.724 33.664 218.58 31.776 218.58 29.568V13.584L217.62 10.56H221.652ZM232.771 12.432V16.032H229.363V12.432H232.771ZM232.579 20.4V42H229.555V23.424L228.547 20.4H232.579ZM237.404 22.128C238.236 21.616 239.34 21.12 240.716 20.64C242.092 20.16 243.74 19.92 245.66 19.92C246.492 19.92 247.372 20.016 248.3 20.208C249.26 20.368 250.172 20.72 251.036 21.264C251.9 21.776 252.604 22.592 253.148 23.712C253.372 24.192 253.532 24.768 253.628 25.44C253.756 26.112 253.852 26.992 253.916 28.08C253.98 29.136 254.012 30.528 254.012 32.256V42H250.94V32.16C250.94 30.048 250.876 28.448 250.748 27.36C250.652 26.24 250.412 25.376 250.028 24.768C249.74 24.32 249.244 23.888 248.54 23.472C247.868 23.024 246.844 22.8 245.468 22.8C244.7 22.8 243.996 22.864 243.356 22.992C242.716 23.12 242.124 23.296 241.58 23.52V42H238.508V24.48L237.404 22.128ZM262.432 32.064V38.352C263.168 38.864 263.968 39.2 264.832 39.36C265.696 39.52 266.496 39.6 267.232 39.6C268.608 39.6 269.84 39.456 270.928 39.168C272.048 38.848 273.12 38.336 274.144 37.632V40.848C273.184 41.424 272.128 41.84 270.976 42.096C269.856 42.352 268.64 42.48 267.328 42.48C265.28 42.48 263.472 42.192 261.904 41.616C260.368 41.04 258.96 40.192 257.68 39.072L259.36 37.104V29.28C259.36 28.672 259.36 27.952 259.36 27.12C259.392 26.288 259.536 25.424 259.792 24.528C260.048 23.632 260.512 22.8 261.184 22.032C262.048 21.072 262.976 20.48 263.968 20.256C264.992 20.032 265.904 19.92 266.704 19.92C267.536 19.92 268.448 20.032 269.44 20.256C270.464 20.48 271.392 21.072 272.224 22.032C272.896 22.8 273.36 23.632 273.616 24.528C273.904 25.424 274.064 26.288 274.096 27.12C274.128 27.952 274.144 28.672 274.144 29.28V32.064H262.432ZM270.784 29.184C270.784 28.48 270.752 27.68 270.688 26.784C270.624 25.888 270.368 25.104 269.92 24.432C269.728 24.112 269.376 23.76 268.864 23.376C268.352 22.992 267.6 22.8 266.608 22.8C265.648 22.8 264.896 22.992 264.352 23.376C263.84 23.76 263.472 24.112 263.248 24.432C262.832 25.104 262.592 25.888 262.528 26.784C262.464 27.68 262.432 28.48 262.432 29.184H270.784ZM282.787 37.968V42H278.755V37.968H282.787Z" fill="#FCFCFC"/>
<path d="M32.956 22.6957C32.48 21.5635 31.9375 20.2807 31.4107 18.697C30.0282 14.5512 34.4452 10.0292 34.4872 9.98725L32.0127 7.51275C31.7677 7.75775 26.0225 13.5992 28.0892 19.803C28.6597 21.5145 29.2302 22.8655 29.7307 24.0555C30.8986 26.363 31.5049 28.9138 31.5 31.5C31.2949 33.5846 30.4946 35.5662 29.1945 37.2085C27.8944 38.8509 26.1494 40.0847 24.1675 40.7627C24.7936 38.3087 24.7843 35.7356 24.1404 33.2862C23.4965 30.8367 22.2392 28.5917 20.4872 26.7627L18.6602 24.9357L17.6417 27.3105C14.4287 34.8075 10.605 38.08 8.35625 39.445C6.97576 38.5995 5.8157 37.4385 4.97145 36.0572C4.1272 34.676 3.62289 33.1141 3.5 31.5C3.62072 29.297 4.17309 27.1392 5.12575 25.1492C6.25556 22.7504 6.89287 20.1494 7 17.5V14.3885C8.5295 15.0185 10.5 16.6687 10.5 21V25.5552L13.5502 22.1707C18.9962 16.1262 17.8605 8.9285 15.6607 4.13175C17.3329 4.68912 18.7688 5.79297 19.7373 7.26558C20.7058 8.73819 21.1506 10.4939 21 12.25H24.5C24.5 2.56025 16.4867 0 12.25 0H8.75L10.85 2.79825C11.0897 3.122 15.8585 9.6705 13.2177 16.2522C12.6301 14.5983 11.5532 13.1622 10.13 12.1348C8.7069 11.1074 7.00487 10.5372 5.25 10.5H3.5V17.5C3.37928 19.703 2.8269 21.8607 1.87425 23.8507C0.744443 26.2496 0.10713 28.8506 0 31.5C0 38.234 6.69025 45.5 17.5 45.5C28.3097 45.5 35 38.234 35 31.5C35.0026 28.4474 34.3033 25.435 32.956 22.6957ZM11.9612 41.1705C13.6238 39.7943 15.1218 38.2401 16.4305 36.5398C17.6629 34.9387 18.7275 33.2079 19.6035 31.374C20.5678 32.9311 21.1157 34.71 21.1945 36.5398C21.2732 38.3697 20.8802 40.189 20.0532 41.8232C19.2069 41.9371 18.354 41.9962 17.5 42C15.6219 42.013 13.7532 41.7331 11.9612 41.1705Z" fill="#BD00FF"/>
</svg>
